<?xml version="1.0" encoding="utf-8"?><svg xml:space="preserve" viewBox="0 0 100 100" y="0" x="0" xmlns="http://www.w3.org/2000/svg" id="圖層_1" version="1.1" width="200px" height="200px" xmlns:xlink="http://www.w3.org/1999/xlink" style="width:100%;height:100%;background-size:initial;background-repeat-y:initial;background-repeat-x:initial;background-position-y:initial;background-position-x:initial;background-origin:initial;background-image:initial;background-color:rgb(255, 255, 255);background-clip:initial;background-attachment:initial;animation-play-state:paused" ><g class="ldl-scale" style="transform-origin:50% 50%;transform:rotate(0deg) scale(0.8, 0.8);animation-play-state:paused" ><path fill="#a0c8d7" d="M70.5 89.375h-41a5.75 5.75 0 0 1-5.75-5.75V70c0-13.876 11.249-25.125 25.125-25.125h2.25C65.001 44.875 76.25 56.124 76.25 70v13.625a5.75 5.75 0 0 1-5.75 5.75z" style="fill:rgb(160, 200, 215);animation-play-state:paused" ></path>
<circle fill="#f5e6c8" r="21.25" cy="31.875" cx="50" style="fill:rgb(245, 230, 200);animation-play-state:paused" ></circle>
<path fill="#f5e6c8" d="M53.71 21.88C48.432 28.621 40.225 32.958 31 32.958a29.11 29.11 0 0 1-2.2-.092c.521 11.272 9.799 20.259 21.2 20.259 11.736 0 21.25-9.514 21.25-21.25 0-1.473-.151-2.911-.436-4.3A22.573 22.573 0 0 1 53.71 21.88z" style="fill:rgb(245, 230, 200);animation-play-state:paused" ></path>
<path fill="#4a3827" d="M58.606 12.456a28.725 28.725 0 0 1-4.896 9.423 22.579 22.579 0 0 0 17.105 5.696c-1.395-6.784-6.029-12.376-12.209-15.119z" style="fill:rgb(74, 56, 39);animation-play-state:paused" ></path>
<path fill="#4a3827" d="M50 10.625c-1.042 0-2.059.1-3.061.245C36.657 12.358 28.75 21.181 28.75 31.875c0 .335.035.66.05.991a29.11 29.11 0 0 0 2.2.092c9.225 0 17.432-4.338 22.71-11.079a28.735 28.735 0 0 0 4.896-9.423A21.147 21.147 0 0 0 50 10.625z" style="fill:rgb(74, 56, 39);animation-play-state:paused" ></path>
<metadata xmlns:d="https://loading.io/stock/" style="animation-play-state:paused" ><d:name style="animation-play-state:paused" >boy</d:name>


<d:tags style="animation-play-state:paused" >boy,gentleman,male,man,user,avatar,account,profile,customer,guest</d:tags>


<d:license style="animation-play-state:paused" >by</d:license>


<d:slug style="animation-play-state:paused" >obz6n3</d:slug></metadata></g><!-- generated by https://loading.io/ --></svg>